<?xml version="1.0" encoding="utf-8"?>
<!DOCTYPE svg PUBLIC "-//W3C//DTD SVG 20010904//EN" "http://www.w3.org/TR/2001/REC-SVG-20010904/DTD/svg10.dtd">
<svg version="1.0" xmlns="http://www.w3.org/2000/svg" width="258pt" height="258pt" viewBox="0 0 258 258" style="" preserveAspectRatio="xMidYMid meet">
<g fill="#0C7C9AFE" stroke="#0C7C9AFE">
<path d="M 152.000 66.040 L 118.500 82.867 118.000 91.184 C 117.725 95.758 117.624 114.448 117.776 132.718 L 118.052 165.935 124.847 162.718 L 131.642 159.500 117.427 174.500 L 103.211 189.500 96.663 186.288 L 90.115 183.076 91.481 186.788 C 92.232 188.830 94.425 194.325 96.354 199.000 C 99.659 207.007 100.173 207.678 105.233 210.579 C 108.188 212.272 111.601 213.585 112.818 213.495 C 114.259 213.389 121.290 206.905 132.965 194.916 L 150.898 176.500 150.949 183.691 C 150.977 187.646 151.338 191.091 151.750 191.347 C 152.163 191.603 152.275 188.237 152.000 183.868 L 151.500 175.923 155.500 172.079 C 159.118 168.601 162.941 166.000 164.434 166.000 C 164.745 166.000 165.000 169.606 165.000 174.013 L 165.000 182.025 172.000 178.500 L 179.000 174.975 179.000 168.202 L 179.000 161.429 185.500 158.224 L 192.000 155.019 192.000 163.009 C 192.000 167.749 192.413 171.000 193.015 171.000 C 193.573 171.000 196.498 169.607 199.515 167.905 L 205.000 164.809 205.000 170.846 C 205.000 174.166 205.338 177.073 205.750 177.306 C 206.163 177.540 212.463 174.830 219.750 171.285 L 233.000 164.840 233.000 156.420 C 233.000 151.789 232.757 148.000 232.460 148.000 C 232.163 148.000 230.251 148.842 228.210 149.872 C 219.880 154.074 220.000 154.144 220.000 145.093 C 220.000 137.169 220.044 137.029 223.000 135.500 C 224.650 134.647 226.000 134.218 226.000 134.548 C 226.000 134.878 230.516 132.756 236.035 129.833 L 246.071 124.519 245.785 116.329 L 245.500 108.139 238.750 111.480 L 232.000 114.821 232.000 108.032 L 232.000 101.244 208.888 112.872 L 185.776 124.500 185.638 86.857 L 185.500 49.213 152.000 66.040 "/></g>
<g fill="#2CB4C6FE" stroke="#2CB4C6FE">
<path d="M 51.000 86.786 C 51.000 98.281 50.708 113.108 50.352 119.734 L 49.704 131.782 66.602 140.011 C 75.896 144.538 83.831 148.749 84.235 149.371 C 84.639 149.992 84.976 150.132 84.985 149.683 C 84.993 149.234 88.038 150.524 91.750 152.549 C 95.463 154.575 100.691 157.332 103.368 158.676 L 108.237 161.119 105.868 163.809 L 103.500 166.500 106.144 164.175 L 108.788 161.851 112.854 163.925 C 115.090 165.066 117.169 166.000 117.474 166.000 C 117.778 166.000 117.908 151.038 117.763 132.751 L 117.500 99.502 84.250 82.694 L 51.000 65.886 51.000 86.786 M 98.504 106.226 L 105.045 109.452 104.773 126.207 L 104.500 142.962 97.750 139.824 L 91.000 136.687 91.000 119.844 C 91.000 110.580 91.216 103.000 91.481 103.000 C 91.746 103.000 94.906 104.452 98.504 106.226 M 77.000 112.205 L 77.000 128.981 70.500 125.776 L 64.000 122.571 64.000 105.795 L 64.000 89.019 70.500 92.224 L 77.000 95.429 77.000 112.205 "/></g>
<g fill="#64FAFEFE" stroke="#64FAFEFE">
<path d="M 84.627 31.831 L 63.929 42.481 69.964 45.454 C 73.284 47.089 76.000 48.685 76.000 49.000 C 76.000 49.315 73.188 50.959 69.750 52.654 L 63.500 55.735 83.941 65.968 L 104.383 76.201 111.191 72.907 L 118.000 69.614 124.815 72.911 L 131.631 76.208 140.065 71.989 C 144.704 69.669 153.628 65.049 159.896 61.724 L 171.292 55.678 165.646 52.823 C 162.541 51.253 160.000 49.621 160.000 49.198 C 160.000 48.774 162.744 47.076 166.097 45.424 L 172.194 42.420 151.097 31.644 C 139.494 25.717 130.000 21.265 130.000 21.750 C 130.000 22.235 127.306 23.920 124.014 25.493 L 118.027 28.355 112.838 25.927 C 109.983 24.592 107.125 22.978 106.487 22.341 C 105.606 21.462 100.326 23.754 84.627 31.831 "/></g>
<g fill="#66CACCFE" stroke="#66CACCFE">
<path d="M 50.657 61.250 C 50.301 67.438 50.091 74.750 50.191 77.500 C 50.323 81.144 50.525 80.288 50.936 74.346 L 51.500 66.191 84.000 82.544 C 101.875 91.538 116.838 98.920 117.250 98.949 C 117.663 98.977 118.000 95.401 118.000 91.003 L 118.000 83.006 85.006 66.503 C 66.859 57.426 51.853 50.000 51.659 50.000 C 51.464 50.000 51.014 55.063 50.657 61.250 "/></g>
<g fill="#A4663EFE" stroke="#A4663EFE">
<path d="M 69.000 183.500 C 68.315 184.325 67.121 185.000 66.346 185.000 C 65.571 185.000 64.678 185.675 64.362 186.500 C 64.045 187.325 63.173 188.000 62.424 188.000 C 61.568 188.000 61.299 187.386 61.698 186.345 C 62.257 184.887 61.926 184.916 58.916 186.584 C 57.037 187.626 54.732 189.097 53.794 189.854 C 52.338 191.028 51.868 191.011 50.591 189.734 C 49.769 188.911 49.374 187.960 49.714 187.619 C 50.055 187.279 49.631 187.000 48.774 187.000 C 47.916 187.000 46.955 187.675 46.638 188.500 C 46.322 189.325 45.326 190.000 44.424 190.000 C 43.379 190.000 42.994 189.457 43.362 188.500 C 44.015 186.798 42.464 186.440 41.462 188.062 C 41.101 188.646 39.724 189.534 38.403 190.037 C 35.744 191.048 35.149 193.000 37.500 193.000 C 38.325 193.000 39.000 193.450 39.000 194.000 C 39.000 195.296 38.744 195.267 35.566 193.619 L 32.903 192.237 35.702 190.150 C 37.696 188.663 38.028 188.054 36.857 188.032 C 35.953 188.014 34.955 188.675 34.638 189.500 C 34.322 190.325 33.429 191.000 32.654 191.000 C 31.879 191.000 30.685 191.675 30.000 192.500 C 28.410 194.416 26.613 194.450 27.342 192.551 C 27.715 191.579 27.418 191.286 26.438 191.662 C 25.409 192.057 25.160 191.746 25.596 190.611 C 26.656 187.848 23.596 188.809 22.275 191.655 C 21.201 193.966 21.383 194.886 23.737 199.075 C 25.215 201.704 26.779 203.636 27.212 203.369 C 27.646 203.101 28.498 203.190 29.107 203.566 C 29.851 204.026 29.876 204.458 29.183 204.887 C 28.570 205.266 30.717 209.695 34.477 215.808 C 37.992 221.523 41.035 225.517 41.325 224.796 C 41.736 223.778 42.067 223.816 42.871 224.974 C 43.448 225.805 43.507 226.686 43.007 226.996 C 42.338 227.409 46.405 235.371 48.543 237.832 C 48.702 238.015 51.345 237.851 54.416 237.467 C 59.970 236.773 61.591 235.461 58.250 234.362 C 54.145 233.011 50.000 230.843 50.000 230.047 C 50.000 229.574 49.162 229.406 48.138 229.674 C 47.021 229.966 46.033 229.529 45.669 228.581 C 45.336 227.711 45.499 227.000 46.031 227.000 C 47.685 227.000 47.095 224.971 45.250 224.313 C 44.288 223.970 42.906 223.228 42.179 222.664 C 41.107 221.831 41.146 221.596 42.386 221.414 C 43.226 221.291 44.437 221.822 45.079 222.595 C 46.427 224.220 49.443 224.526 48.462 222.938 C 48.101 222.354 46.724 221.466 45.403 220.963 C 42.963 220.035 42.078 218.000 44.115 218.000 C 44.796 218.000 44.592 217.026 43.592 215.500 C 42.691 214.125 42.221 213.000 42.548 213.000 C 42.875 213.000 42.468 212.325 41.643 211.500 C 40.818 210.675 39.462 210.000 38.630 210.000 C 37.799 210.000 36.840 209.550 36.500 209.000 C 36.160 208.450 35.057 208.000 34.048 208.000 C 33.039 208.000 31.955 207.325 31.638 206.500 C 31.282 205.570 31.643 205.000 32.590 205.000 C 34.753 205.000 33.300 203.081 30.153 201.781 C 28.149 200.953 27.906 200.588 29.157 200.287 C 30.068 200.068 31.107 200.364 31.466 200.945 C 31.825 201.525 32.793 202.000 33.618 202.000 C 35.762 202.000 34.267 200.052 31.240 198.901 C 29.521 198.247 29.006 197.594 29.680 196.920 C 30.353 196.247 31.107 196.424 31.965 197.458 C 33.620 199.453 36.123 199.484 35.362 197.500 C 35.045 196.675 35.215 196.000 35.739 196.000 C 37.439 196.000 43.000 199.119 43.000 200.073 C 43.000 200.583 43.886 201.000 44.969 201.000 C 46.271 201.000 46.750 200.513 46.385 199.561 C 45.992 198.538 46.849 197.931 49.352 197.462 C 53.210 196.738 55.414 197.521 54.352 199.239 C 53.908 199.958 54.278 200.107 55.418 199.670 C 56.378 199.301 57.338 199.000 57.550 199.000 C 57.763 199.000 57.678 198.325 57.362 197.500 C 57.045 196.675 57.270 196.000 57.862 196.000 C 58.453 196.000 58.678 195.325 58.362 194.500 C 57.994 193.543 58.379 193.000 59.424 193.000 C 60.326 193.000 61.322 193.675 61.638 194.500 C 61.955 195.325 63.039 196.000 64.048 196.000 C 65.057 196.000 66.160 196.450 66.500 197.000 C 67.481 198.587 70.291 198.200 69.663 196.565 C 69.360 195.775 69.606 194.965 70.210 194.763 C 70.928 194.524 70.746 193.542 69.681 191.917 C 68.162 189.598 68.184 189.226 70.028 186.194 C 71.113 184.411 72.000 182.738 72.000 182.476 C 72.000 181.455 70.182 182.075 69.000 183.500 M 44.000 196.500 C 45.012 197.720 44.965 198.000 43.745 198.000 C 42.920 198.000 41.685 197.325 41.000 196.500 C 39.988 195.280 40.035 195.000 41.255 195.000 C 42.080 195.000 43.315 195.675 44.000 196.500 M 32.773 196.000 C 30.905 196.000 29.715 194.619 30.718 193.616 C 31.082 193.251 32.067 193.638 32.905 194.476 C 34.270 195.841 34.256 196.000 32.773 196.000 M 55.771 195.813 C 56.015 196.544 55.557 196.767 54.584 196.394 C 53.713 196.059 53.000 195.347 53.000 194.810 C 53.000 193.495 55.273 194.318 55.771 195.813 M 67.500 194.000 C 67.840 194.550 67.443 195.000 66.618 195.000 C 65.793 195.000 64.840 194.550 64.500 194.000 C 64.160 193.450 64.557 193.000 65.382 193.000 C 66.207 193.000 67.160 193.450 67.500 194.000 "/></g>
<g fill="#2A8C9AFE" stroke="#2A8C9AFE">
<path d="M 161.500 167.160 C 160.400 167.765 157.813 169.868 155.750 171.833 C 152.043 175.365 152.000 175.495 152.000 183.203 C 152.000 187.491 152.238 191.000 152.529 191.000 C 152.819 191.000 155.744 189.644 159.029 187.986 L 165.000 184.971 165.000 191.486 C 165.000 195.069 165.338 197.987 165.750 197.972 C 166.163 197.956 169.200 196.494 172.500 194.722 L 178.500 191.500 178.791 183.217 L 179.082 174.934 172.041 178.479 L 165.000 182.025 165.000 174.013 C 165.000 169.606 164.663 166.014 164.250 166.030 C 163.838 166.047 162.600 166.556 161.500 167.160 "/></g>
<g fill="#CCCCCCFE" stroke="#CCCCCCFE">
<path d="M 64.000 106.285 L 64.000 122.571 70.500 125.776 L 77.000 128.981 77.000 112.199 L 77.000 95.417 71.478 92.708 C 68.441 91.219 65.516 90.000 64.978 90.000 C 64.381 90.000 64.000 96.341 64.000 106.285 "/></g>
<g fill="#CCCCCCFE" stroke="#CCCCCCFE">
<path d="M 91.000 119.547 L 91.000 135.971 96.971 138.986 C 100.256 140.644 103.192 142.000 103.496 142.000 C 103.800 142.000 103.925 134.529 103.774 125.398 L 103.500 108.795 97.250 105.959 L 91.000 103.123 91.000 119.547 "/></g>
<g fill="#42CEFCFE" stroke="#42CEFCFE">
<path d="M 124.265 163.456 L 118.029 166.413 113.383 164.156 L 108.737 161.898 106.369 164.123 C 105.066 165.347 104.000 166.856 104.000 167.477 C 104.000 168.097 100.752 171.676 96.781 175.429 L 89.562 182.253 96.129 185.564 L 102.695 188.874 116.598 174.687 L 130.500 160.500 124.265 163.456 "/></g>
<g fill="#92909AFE" stroke="#92909AFE">
<path d="M 52.362 204.500 C 52.797 205.634 52.183 206.000 49.846 206.000 C 47.212 206.000 46.939 206.222 48.000 207.500 C 49.021 208.730 48.949 209.000 47.599 209.000 C 46.085 209.000 46.088 209.205 47.648 211.585 C 48.972 213.606 49.066 214.341 48.079 214.951 C 46.383 216.000 48.791 220.000 51.118 220.000 C 52.018 220.000 53.312 220.671 53.992 221.490 C 54.758 222.413 56.233 222.792 57.864 222.484 C 59.314 222.211 59.935 222.254 59.244 222.579 C 57.493 223.404 58.710 225.000 61.090 225.000 C 62.175 225.000 63.322 225.675 63.638 226.500 C 64.444 228.599 65.671 228.368 66.290 226.000 C 66.614 224.759 67.654 224.000 69.029 224.000 C 70.885 224.000 71.043 223.757 70.000 222.500 C 68.982 221.274 69.045 221.000 70.346 221.000 C 71.350 221.000 71.725 220.446 71.362 219.500 C 71.045 218.675 71.300 218.000 71.928 218.000 C 72.768 218.000 72.781 217.460 71.980 215.962 C 71.380 214.841 71.190 212.976 71.558 211.816 C 72.121 210.045 71.895 209.794 70.149 210.251 C 68.675 210.636 67.890 210.230 67.454 208.855 C 67.021 207.490 66.271 207.096 64.919 207.526 C 63.864 207.861 63.000 207.687 63.000 207.141 C 63.000 205.747 57.187 203.000 54.239 203.000 C 52.469 203.000 51.946 203.418 52.362 204.500 M 56.755 215.750 C 57.364 217.598 53.324 217.287 52.612 215.431 C 52.161 214.257 52.555 213.942 54.177 214.181 C 55.368 214.356 56.529 215.063 56.755 215.750 M 62.020 214.524 C 62.716 215.362 63.015 216.318 62.686 216.648 C 61.662 217.672 59.000 216.143 59.000 214.531 C 59.000 212.573 60.398 212.569 62.020 214.524 M 65.782 220.846 C 66.069 221.706 65.588 222.066 64.448 221.846 C 63.468 221.655 62.464 220.895 62.218 220.154 C 61.931 219.294 62.412 218.934 63.552 219.154 C 64.532 219.345 65.536 220.105 65.782 220.846 M 68.362 214.500 C 68.698 215.376 68.377 216.000 67.591 216.000 C 66.851 216.000 65.685 215.325 65.000 214.500 C 63.963 213.251 64.092 213.000 65.771 213.000 C 66.879 213.000 68.045 213.675 68.362 214.500 M 58.782 209.846 C 59.069 210.706 58.588 211.066 57.448 210.846 C 56.468 210.655 55.464 209.895 55.218 209.154 C 54.931 208.294 55.412 207.934 56.552 208.154 C 57.532 208.345 58.536 209.105 58.782 209.846 "/></g>
<g fill="#CCCCCCFE" stroke="#CCCCCCFE">
<path d="M 72.084 159.399 C 71.382 160.245 67.674 161.111 62.711 161.588 C 58.195 162.022 54.163 162.461 53.750 162.563 C 53.338 162.666 52.564 162.806 52.031 162.875 C 50.431 163.081 43.641 174.380 44.870 174.790 C 45.685 175.062 45.679 175.732 44.849 177.283 C 43.998 178.872 44.002 179.501 44.863 179.788 C 45.495 179.998 45.758 180.582 45.447 181.085 C 45.136 181.588 45.407 182.000 46.048 182.000 C 46.714 182.000 46.946 182.698 46.590 183.626 C 46.014 185.128 46.156 185.128 48.448 183.626 C 49.813 182.732 51.372 182.000 51.913 182.000 C 52.454 182.000 54.158 180.825 55.698 179.389 C 57.239 177.953 59.400 176.359 60.500 175.846 C 65.830 173.362 67.554 171.688 71.133 165.518 C 73.260 161.852 75.000 158.661 75.000 158.426 C 75.000 157.478 73.172 158.088 72.084 159.399 M 61.000 165.031 C 61.000 166.229 58.179 167.513 57.357 166.690 C 56.481 165.814 57.966 164.000 59.559 164.000 C 60.352 164.000 61.000 164.464 61.000 165.031 M 54.362 175.500 C 53.760 177.067 51.000 177.615 51.000 176.167 C 51.000 174.945 52.149 174.000 53.635 174.000 C 54.382 174.000 54.692 174.640 54.362 175.500 M 57.362 170.500 C 56.760 172.067 54.000 172.615 54.000 171.167 C 54.000 169.945 55.149 169.000 56.635 169.000 C 57.382 169.000 57.692 169.640 57.362 170.500 M 50.509 171.992 C 49.653 172.703 48.626 172.959 48.227 172.561 C 47.829 172.162 48.397 171.183 49.490 170.384 C 51.845 168.661 52.768 170.118 50.509 171.992 M 64.000 169.031 C 64.000 170.320 61.151 171.484 60.236 170.569 C 59.863 170.196 60.220 169.473 61.029 168.961 C 62.965 167.737 64.000 167.761 64.000 169.031 M 66.362 164.500 C 65.760 166.067 63.000 166.615 63.000 165.167 C 63.000 163.945 64.149 163.000 65.635 163.000 C 66.382 163.000 66.692 163.640 66.362 164.500 M 54.457 166.069 C 54.141 166.581 53.178 167.000 52.319 167.000 C 51.047 167.000 50.986 166.722 51.991 165.511 C 53.282 163.955 55.459 164.448 54.457 166.069 "/></g>
<g fill="#42CEFCFE" stroke="#42CEFCFE">
<path d="M 45.032 144.468 C 39.846 149.676 35.805 154.116 36.051 154.336 C 36.298 154.556 37.790 155.398 39.366 156.207 C 42.043 157.580 42.386 157.523 44.570 155.339 C 46.351 153.558 48.018 153.000 51.554 153.000 C 55.865 153.000 56.637 152.577 62.292 147.111 L 68.384 141.223 62.221 138.111 C 58.831 136.400 55.698 135.000 55.259 135.000 C 54.820 135.000 50.218 139.261 45.032 144.468 "/></g>
<g fill="#145082A0" stroke="#145082A0">
<path d="M 139.750 187.745 L 134.000 193.558 134.000 200.765 L 134.000 207.971 140.025 211.013 L 146.050 214.054 145.775 197.993 L 145.500 181.933 139.750 187.745 "/></g>
<g fill="#2A8C9AFE" stroke="#2A8C9AFE">
<path d="M 218.750 171.581 C 211.738 175.059 206.000 178.376 206.000 178.952 C 206.000 180.446 206.388 180.338 213.000 177.000 C 216.269 175.350 219.181 174.000 219.471 174.000 C 219.762 174.000 220.000 176.921 220.000 180.491 L 220.000 186.981 226.500 183.776 L 233.000 180.571 233.000 172.785 C 233.000 168.503 232.663 165.058 232.250 165.129 C 231.838 165.200 225.763 168.104 218.750 171.581 "/></g>
<g fill="#80FCFEFE" stroke="#80FCFEFE">
<path d="M 110.531 73.175 L 104.563 76.253 111.281 79.640 L 118.000 83.028 124.721 79.640 L 131.441 76.251 125.249 73.126 C 121.843 71.407 118.482 70.022 117.779 70.048 C 117.075 70.075 113.814 71.482 110.531 73.175 "/></g>
<g fill="#80FCFEFE" stroke="#80FCFEFE">
<path d="M 56.533 46.174 L 50.565 49.252 57.009 52.505 L 63.453 55.758 69.727 52.664 C 73.177 50.963 76.000 49.311 76.000 48.994 C 76.000 48.199 65.246 42.989 63.728 43.048 C 63.053 43.075 59.815 44.481 56.533 46.174 "/></g>
<g fill="#42CEFCFE" stroke="#42CEFCFE">
<path d="M 165.250 45.768 C 162.363 47.223 160.000 48.763 160.000 49.191 C 160.000 49.618 162.577 51.271 165.726 52.863 L 171.452 55.759 177.726 52.665 C 181.177 50.963 184.000 49.311 184.000 48.994 C 184.000 48.191 173.233 42.986 171.728 43.061 C 171.053 43.094 168.138 44.312 165.250 45.768 "/></g>
<g fill="#42CEFCFE" stroke="#42CEFCFE">
<path d="M 111.726 18.137 C 108.577 19.729 106.000 21.392 106.000 21.832 C 106.000 22.272 108.700 23.923 112.000 25.500 L 118.000 28.368 124.000 25.500 C 127.300 23.923 130.000 22.362 130.000 22.031 C 130.000 21.700 127.177 20.037 123.726 18.335 L 117.452 15.241 111.726 18.137 "/></g>
<g fill="#AA8874FE" stroke="#AA8874FE">
<path d="M 43.000 219.025 C 43.000 219.588 44.081 220.461 45.403 220.963 C 46.724 221.466 48.101 222.354 48.462 222.938 C 49.443 224.526 46.427 224.220 45.079 222.595 C 44.437 221.822 43.226 221.291 42.386 221.414 C 41.146 221.596 41.107 221.831 42.179 222.664 C 42.906 223.228 44.288 223.970 45.250 224.313 C 47.095 224.971 47.685 227.000 46.031 227.000 C 45.499 227.000 45.336 227.711 45.669 228.581 C 46.033 229.529 47.021 229.966 48.138 229.674 C 49.162 229.406 50.000 229.562 50.000 230.020 C 50.000 231.024 55.747 234.000 57.685 234.000 C 58.443 234.000 59.322 234.675 59.638 235.500 C 59.955 236.325 60.889 237.000 61.714 237.000 C 62.636 237.000 62.992 236.422 62.638 235.500 C 62.322 234.675 62.547 234.000 63.138 234.000 C 63.730 234.000 63.955 233.325 63.638 232.500 C 63.322 231.675 63.499 231.000 64.031 231.000 C 64.564 231.000 65.000 230.325 65.000 229.500 C 65.000 228.675 64.127 228.000 63.059 228.000 C 61.991 228.000 60.840 227.550 60.500 227.000 C 60.160 226.450 59.057 226.000 58.048 226.000 C 57.039 226.000 55.955 225.325 55.638 224.500 C 55.322 223.675 54.443 223.000 53.685 223.000 C 51.941 223.000 46.228 220.177 45.461 218.937 C 44.685 217.682 43.000 217.742 43.000 219.025 "/></g>
<g fill="#AA8874FE" stroke="#AA8874FE">
<path d="M 58.362 194.500 C 58.678 195.325 58.453 196.000 57.862 196.000 C 57.270 196.000 57.045 196.675 57.362 197.500 C 57.678 198.325 57.453 199.000 56.862 199.000 C 56.270 199.000 56.034 199.646 56.337 200.435 C 56.640 201.225 56.350 202.094 55.694 202.368 C 55.037 202.641 55.898 202.627 57.606 202.336 C 59.933 201.940 60.876 202.234 61.365 203.508 C 61.725 204.446 62.648 204.965 63.426 204.667 C 64.201 204.370 65.083 204.773 65.386 205.563 C 65.689 206.353 66.865 207.000 68.000 207.000 C 69.135 207.000 70.311 207.647 70.614 208.437 C 70.917 209.227 71.815 209.625 72.608 209.320 C 73.716 208.895 73.785 208.445 72.903 207.383 C 72.008 206.304 72.105 206.000 73.346 206.000 C 74.350 206.000 74.725 205.446 74.362 204.500 C 74.045 203.675 74.322 203.000 74.976 203.000 C 75.631 203.000 75.980 202.439 75.751 201.754 C 75.523 201.069 74.512 200.507 73.504 200.504 C 72.497 200.502 71.483 199.938 71.253 199.250 C 71.022 198.563 71.307 198.000 71.885 198.000 C 72.464 198.000 72.678 197.325 72.362 196.500 C 72.045 195.675 71.173 195.000 70.424 195.000 C 69.625 195.000 69.300 195.619 69.638 196.500 C 70.288 198.192 67.510 198.635 66.500 197.000 C 66.160 196.450 65.057 196.000 64.048 196.000 C 63.039 196.000 61.955 195.325 61.638 194.500 C 61.322 193.675 60.326 193.000 59.424 193.000 C 58.379 193.000 57.994 193.543 58.362 194.500 "/></g>
<g fill="#7A4C2CFE" stroke="#7A4C2CFE">
<path d="M 88.684 177.456 C 86.218 181.670 83.861 184.978 83.446 184.808 C 83.032 184.639 83.432 185.113 84.335 185.863 C 85.239 186.613 85.731 187.626 85.430 188.113 C 85.129 188.601 85.407 189.000 86.049 189.000 C 86.787 189.000 86.992 189.897 86.605 191.439 C 86.268 192.780 86.446 194.158 87.000 194.500 C 87.554 194.842 87.713 196.294 87.354 197.726 C 86.833 199.800 87.011 200.210 88.228 199.743 C 89.069 199.420 90.261 199.661 90.878 200.278 C 91.707 201.107 92.000 201.055 92.000 200.078 C 92.000 199.053 92.317 199.018 93.411 199.926 C 96.029 202.099 95.931 199.364 93.133 192.171 C 91.601 188.235 90.071 184.737 89.731 184.398 C 88.894 183.561 92.410 177.152 94.575 175.569 C 96.176 174.398 96.190 174.110 94.744 172.045 C 93.187 169.822 93.115 169.887 88.684 177.456 M 92.457 192.931 C 93.197 194.128 91.316 195.313 89.984 194.490 C 88.865 193.799 89.600 192.000 91.000 192.000 C 91.485 192.000 92.141 192.419 92.457 192.931 "/></g>
<g fill="#AA8874FE" stroke="#AA8874FE">
<path d="M 29.539 196.937 C 29.176 197.525 29.985 198.424 31.343 198.940 C 34.286 200.059 35.729 202.000 33.618 202.000 C 32.793 202.000 31.825 201.525 31.466 200.945 C 31.107 200.364 30.068 200.068 29.157 200.287 C 27.906 200.588 28.149 200.953 30.153 201.781 C 33.300 203.081 34.753 205.000 32.590 205.000 C 31.643 205.000 31.282 205.570 31.638 206.500 C 31.955 207.325 33.039 208.000 34.048 208.000 C 35.057 208.000 36.160 208.450 36.500 209.000 C 36.840 209.550 37.991 210.000 39.059 210.000 C 40.127 210.000 41.000 210.450 41.000 211.000 C 41.000 211.550 41.702 212.000 42.559 212.000 C 43.416 212.000 43.838 211.547 43.496 210.993 C 43.153 210.439 43.548 209.727 44.373 209.410 C 45.199 209.094 45.629 208.197 45.330 207.417 C 45.031 206.638 45.339 206.000 46.015 206.000 C 46.981 206.000 46.978 205.678 46.000 204.500 C 44.977 203.268 45.055 203.000 46.437 203.000 C 47.361 203.000 47.840 202.550 47.500 202.000 C 47.160 201.450 46.009 201.000 44.941 201.000 C 43.873 201.000 43.000 200.583 43.000 200.073 C 43.000 199.119 37.439 196.000 35.739 196.000 C 35.215 196.000 35.045 196.675 35.362 197.500 C 36.114 199.461 34.125 199.423 31.928 197.435 C 30.779 196.395 29.977 196.228 29.539 196.937 "/></g>
<g fill="#AA8874FE" stroke="#AA8874FE">
<path d="M 83.638 218.500 C 84.288 220.192 81.510 220.635 80.500 219.000 C 79.500 217.381 76.993 217.819 77.638 219.500 C 77.955 220.326 77.668 221.000 77.000 221.000 C 76.332 221.000 76.045 221.674 76.362 222.500 C 76.678 223.325 76.453 224.000 75.862 224.000 C 75.270 224.000 75.045 224.675 75.362 225.500 C 75.678 226.325 75.501 227.000 74.969 227.000 C 74.436 227.000 74.000 227.450 74.000 228.000 C 74.000 228.550 74.852 229.000 75.893 229.000 C 76.934 229.000 78.045 229.675 78.362 230.500 C 78.678 231.325 79.851 232.000 80.969 232.000 C 82.086 232.000 83.000 232.450 83.000 233.000 C 83.000 233.550 83.675 234.000 84.500 234.000 C 85.325 234.000 86.000 233.325 86.000 232.500 C 86.000 231.675 86.505 231.000 87.122 231.000 C 87.898 231.000 87.860 230.536 87.000 229.500 C 85.982 228.274 86.045 228.000 87.346 228.000 C 88.350 228.000 88.725 227.446 88.362 226.500 C 88.045 225.675 88.322 225.000 88.976 225.000 C 89.631 225.000 89.978 224.438 89.747 223.750 C 89.517 223.063 88.503 222.498 87.496 222.496 C 86.488 222.493 85.477 221.931 85.249 221.246 C 85.020 220.561 85.307 220.000 85.885 220.000 C 86.464 220.000 86.678 219.325 86.362 218.500 C 86.045 217.675 85.173 217.000 84.424 217.000 C 83.625 217.000 83.300 217.619 83.638 218.500 "/></g>
<g fill="#0C7C9AFE" stroke="#0C7C9AFE">
<path d="M 62.936 146.565 L 57.568 152.000 61.034 151.905 C 62.940 151.853 69.000 151.271 74.500 150.612 L 84.500 149.413 76.402 145.272 L 68.303 141.130 62.936 146.565 "/></g>
<g fill="#884C22FE" stroke="#884C22FE">
<path d="M 75.320 198.710 C 74.602 198.959 76.746 203.178 80.802 209.495 C 84.696 215.562 87.753 219.400 88.161 218.739 C 88.546 218.117 88.473 216.884 88.000 216.000 C 87.517 215.098 87.523 213.773 88.013 212.980 C 88.532 212.139 88.469 211.065 87.857 210.327 C 87.291 209.645 87.093 208.659 87.417 208.134 C 87.741 207.610 87.727 206.453 87.386 205.565 C 86.906 204.314 86.454 204.208 85.383 205.097 C 83.871 206.352 83.603 205.590 83.979 201.108 C 84.130 199.313 83.792 198.866 82.622 199.315 C 81.765 199.644 80.768 199.434 80.407 198.850 C 79.970 198.142 79.457 198.241 78.875 199.143 C 78.263 200.093 77.775 200.170 77.250 199.400 C 76.838 198.795 75.969 198.484 75.320 198.710 "/></g>
<g fill="#A4663EFE" stroke="#A4663EFE">
<path d="M 81.539 162.937 C 80.564 164.514 74.821 167.007 73.724 166.329 C 73.127 165.961 72.992 166.179 73.405 166.845 C 73.797 167.480 73.738 168.000 73.275 168.000 C 71.755 168.000 68.536 174.345 69.836 174.779 C 70.483 174.994 70.758 175.582 70.447 176.085 C 70.136 176.588 70.359 177.000 70.941 177.000 C 73.051 177.000 71.935 179.075 69.250 180.144 C 67.738 180.746 67.035 181.438 67.689 181.682 C 68.343 181.926 69.989 181.398 71.346 180.509 C 72.980 179.438 74.035 179.248 74.466 179.946 C 75.716 181.968 77.222 181.020 76.613 178.595 C 76.175 176.848 77.104 174.387 80.005 169.613 C 82.202 165.996 84.000 162.803 84.000 162.518 C 84.000 161.634 82.150 161.949 81.539 162.937 "/></g>
<g fill="#AA8874FE" stroke="#AA8874FE">
<path d="M 65.962 174.546 C 65.257 175.396 64.114 175.874 63.423 175.609 C 62.731 175.343 61.899 175.820 61.574 176.667 C 61.201 177.639 60.352 177.965 59.272 177.551 C 58.331 177.190 57.863 177.197 58.233 177.566 C 58.947 178.280 56.184 181.500 54.858 181.500 C 54.426 181.500 54.456 182.120 54.925 182.878 C 55.421 183.682 56.304 183.930 57.043 183.474 C 57.867 182.964 58.060 183.094 57.595 183.845 C 56.605 185.449 57.773 187.024 59.469 186.374 C 60.242 186.077 60.629 185.197 60.330 184.417 C 59.969 183.477 60.479 183.000 61.843 183.000 C 62.975 183.000 64.260 182.438 64.700 181.750 C 65.432 180.606 69.392 178.000 70.398 178.000 C 70.632 178.000 70.710 178.788 70.572 179.750 C 70.419 180.818 69.277 181.624 67.644 181.818 C 66.171 181.993 65.244 182.586 65.584 183.135 C 65.923 183.685 65.287 184.374 64.170 184.666 C 61.737 185.302 60.411 188.000 62.531 188.000 C 63.339 188.000 64.000 187.539 64.000 186.975 C 64.000 186.412 65.013 185.513 66.250 184.978 C 71.383 182.758 75.020 179.624 72.706 179.414 C 72.043 179.354 71.668 179.236 71.872 179.152 C 72.077 179.069 71.685 178.325 71.000 177.500 C 70.315 176.675 70.067 176.000 70.449 176.000 C 70.831 176.000 70.468 175.325 69.643 174.500 C 67.777 172.634 67.546 172.637 65.962 174.546 "/></g>
<g fill="#7A4C2CFE" stroke="#7A4C2CFE">
<path d="M 87.636 207.506 C 86.793 209.704 87.694 211.055 89.532 210.349 C 90.536 209.964 91.000 210.451 91.000 211.893 C 91.000 213.052 90.550 214.000 90.000 214.000 C 89.450 214.000 88.993 213.438 88.985 212.750 C 88.974 211.893 88.680 211.958 88.049 212.954 C 87.498 213.826 87.492 215.028 88.034 215.954 C 88.539 216.816 88.953 216.977 88.970 216.318 C 89.002 215.072 92.744 215.106 94.792 216.372 C 95.476 216.794 96.000 216.605 96.000 215.937 C 96.000 215.184 96.454 215.078 97.250 215.643 C 98.357 216.430 99.427 216.530 102.300 216.115 C 102.740 216.052 102.641 215.213 102.080 214.250 C 101.389 213.063 101.051 212.942 101.030 213.872 C 101.006 214.954 100.694 214.991 99.559 214.049 C 98.767 213.392 98.370 212.200 98.676 211.401 C 99.078 210.353 99.586 210.242 100.500 211.000 C 101.408 211.754 101.913 211.670 102.283 210.704 C 102.568 209.963 101.898 208.793 100.796 208.104 C 99.693 207.416 99.042 207.259 99.349 207.756 C 99.656 208.252 98.992 208.592 97.874 208.509 C 96.755 208.427 95.433 207.716 94.935 206.930 C 94.218 205.796 94.021 205.915 93.984 207.500 C 93.939 209.405 93.871 209.414 92.569 207.697 C 91.546 206.347 91.070 206.221 90.677 207.197 C 90.249 208.259 89.979 208.254 89.215 207.166 C 88.460 206.091 88.154 206.158 87.636 207.506 "/></g>
<g fill="#A4663EFE" stroke="#A4663EFE">
<path d="M 74.917 229.409 C 74.688 229.634 72.475 229.941 70.000 230.091 C 64.101 230.449 63.015 230.877 63.670 232.583 C 63.969 233.362 63.689 234.000 63.048 234.000 C 62.407 234.000 62.160 234.450 62.500 235.000 C 63.190 236.117 71.171 236.208 77.919 235.176 C 82.461 234.481 84.909 232.000 81.052 232.000 C 79.889 232.000 78.678 231.325 78.362 230.500 C 77.825 229.101 75.863 228.480 74.917 229.409 "/></g>
<g fill="#92909AFE" stroke="#92909AFE">
<path d="M 69.917 158.403 C 69.688 158.625 65.000 159.127 59.500 159.518 C 54.000 159.909 49.455 160.290 49.400 160.364 C 46.469 164.342 41.454 174.663 42.222 175.137 C 42.791 175.489 42.947 176.277 42.569 176.888 C 41.573 178.499 43.543 178.255 44.919 176.597 C 45.810 175.524 45.792 175.097 44.843 174.781 C 43.195 174.232 50.957 162.463 53.000 162.413 C 60.554 162.229 71.120 160.561 72.084 159.399 C 72.988 158.309 72.923 158.000 71.789 158.000 C 70.988 158.000 70.146 158.182 69.917 158.403 "/></g>
<g fill="#7A4C2CFE" stroke="#7A4C2CFE">
<path d="M 73.566 180.893 C 72.700 182.294 73.830 184.223 75.069 183.457 C 76.523 182.559 77.975 183.902 77.340 185.558 C 76.918 186.655 76.424 186.767 75.472 185.977 C 74.574 185.231 73.980 185.223 73.530 185.951 C 72.613 187.435 73.948 189.234 75.518 188.631 C 77.135 188.011 78.329 190.679 76.845 191.596 C 76.257 191.959 75.439 191.711 75.027 191.044 C 74.464 190.133 74.143 190.186 73.732 191.257 C 73.076 192.966 74.492 195.631 75.333 194.271 C 75.991 193.206 78.945 193.230 80.698 194.314 C 82.283 195.293 83.421 193.212 82.143 191.673 C 81.522 190.924 81.466 189.865 82.000 189.000 C 82.539 188.128 82.468 187.064 81.820 186.284 C 81.062 185.369 81.092 184.594 81.926 183.589 C 82.827 182.503 82.802 181.996 81.816 181.386 C 79.960 180.239 77.009 180.177 76.333 181.271 C 75.996 181.815 75.433 181.701 75.000 181.000 C 74.464 180.133 74.055 180.102 73.566 180.893 "/></g>
<g fill="#AA8874FE" stroke="#AA8874FE">
<path d="M 36.362 177.500 C 36.045 178.325 34.934 179.000 33.893 179.000 C 32.852 179.000 32.000 179.450 32.000 180.000 C 32.000 180.550 31.213 181.036 30.250 181.079 C 29.137 181.129 28.970 181.347 29.792 181.676 C 30.847 182.100 30.847 182.486 29.792 183.789 C 28.800 185.014 28.792 185.209 29.758 184.628 C 31.288 183.708 34.088 186.260 33.162 187.731 C 32.798 188.309 33.625 188.163 35.000 187.407 C 36.375 186.651 38.181 185.775 39.013 185.461 C 39.845 185.147 41.299 183.544 42.244 181.898 C 43.188 180.253 43.516 179.181 42.973 179.517 C 41.821 180.228 38.796 177.538 39.714 176.619 C 40.055 176.279 39.569 176.000 38.635 176.000 C 37.701 176.000 36.678 176.675 36.362 177.500 "/></g>
<g fill="#884C22FE" stroke="#884C22FE">
<path d="M 89.420 220.380 C 88.647 221.153 89.404 223.104 92.079 227.244 L 95.818 233.029 98.812 227.843 C 101.654 222.921 102.106 219.014 99.633 220.740 C 98.222 221.726 95.893 221.693 94.250 220.665 C 93.490 220.189 92.988 220.396 92.968 221.191 C 92.946 222.119 92.582 222.035 91.718 220.900 C 90.846 219.755 90.192 219.608 89.420 220.380 "/></g>
<g fill="#884C22FE" stroke="#884C22FE">
<path d="M 80.304 169.072 C 78.026 172.892 76.614 175.738 77.167 175.397 C 77.777 175.020 78.040 175.902 77.836 177.638 C 77.599 179.657 77.942 180.508 79.000 180.526 C 79.825 180.541 81.031 180.886 81.681 181.293 C 83.072 182.165 84.400 180.456 83.484 178.973 C 83.135 178.409 82.096 178.071 81.175 178.223 C 80.230 178.379 79.500 177.846 79.500 177.000 C 79.500 176.167 80.230 175.619 81.140 175.769 C 83.245 176.113 87.110 169.796 85.947 167.914 C 85.485 167.167 85.540 166.055 86.070 165.416 C 86.694 164.664 86.578 163.895 85.736 163.196 C 84.743 162.372 83.494 163.722 80.304 169.072 "/></g>
<g fill="#A4663EFE" stroke="#A4663EFE">
<path d="M 74.362 204.500 C 74.714 205.418 74.362 206.000 73.454 206.000 C 71.215 206.000 76.792 213.950 79.949 215.258 C 82.083 216.142 82.205 216.384 80.697 216.741 C 79.265 217.079 79.136 217.458 80.069 218.584 C 81.621 220.453 84.382 220.438 83.663 218.565 C 83.360 217.775 83.582 216.973 84.156 216.781 C 85.642 216.286 77.086 203.000 75.281 203.000 C 74.363 203.000 74.008 203.579 74.362 204.500 "/></g>
<g fill="#A4663EFE" stroke="#A4663EFE">
<path d="M 62.828 151.880 C 57.214 152.505 54.328 153.855 56.756 154.722 C 57.447 154.969 57.726 155.634 57.376 156.200 C 56.947 156.894 59.140 156.992 64.120 156.500 C 68.179 156.098 71.660 155.343 71.855 154.820 C 72.050 154.298 73.400 153.348 74.855 152.710 C 77.388 151.599 77.310 151.543 73.000 151.400 C 70.525 151.317 65.947 151.533 62.828 151.880 "/></g>
<g fill="#7A4C2CFE" stroke="#7A4C2CFE">
<path d="M 71.450 212.269 C 71.118 213.135 71.346 214.779 71.958 215.922 C 72.783 217.462 72.775 218.000 71.928 218.000 C 71.300 218.000 71.045 218.675 71.362 219.500 C 71.678 220.325 71.453 221.000 70.862 221.000 C 70.270 221.000 70.029 221.634 70.326 222.408 C 70.672 223.308 69.989 224.037 68.433 224.427 C 67.095 224.763 66.000 225.592 65.999 226.269 C 65.999 227.127 67.526 227.394 71.039 227.151 C 75.227 226.861 75.884 226.565 74.918 225.401 C 74.028 224.329 74.044 224.000 74.985 224.000 C 75.661 224.000 75.969 223.362 75.670 222.583 C 75.371 221.803 75.772 220.918 76.561 220.615 C 77.700 220.178 77.383 219.096 75.026 215.379 C 72.828 211.913 71.897 211.104 71.450 212.269 "/></g>
<g fill="#422814FE" stroke="#422814FE">
<path d="M 90.441 169.115 C 89.267 171.385 88.531 171.931 87.727 171.127 C 86.923 170.323 86.135 170.767 84.819 172.762 C 82.845 175.755 82.419 179.000 84.000 179.000 C 84.550 179.000 85.007 178.438 85.015 177.750 C 85.026 176.903 85.331 176.975 85.961 177.971 C 87.047 179.688 86.925 179.793 90.494 174.066 C 93.084 169.911 93.344 169.750 94.629 171.507 C 95.383 172.538 96.000 173.816 96.000 174.346 C 96.000 174.876 96.911 174.486 98.024 173.478 C 99.138 172.470 99.848 171.163 99.603 170.573 C 99.334 169.924 99.127 169.994 99.079 170.750 C 98.945 172.872 97.514 172.140 95.659 169.000 C 93.419 165.208 92.450 165.229 90.441 169.115 "/></g>
<g fill="#A4663EFE" stroke="#A4663EFE">
<path d="M 80.000 151.000 C 80.000 151.550 80.436 152.000 80.969 152.000 C 81.501 152.000 81.678 152.675 81.362 153.500 C 81.036 154.349 81.338 155.000 82.060 155.000 C 82.760 155.000 83.055 155.279 82.714 155.619 C 81.999 156.335 83.586 157.934 86.883 159.817 C 89.109 161.089 89.166 161.032 88.536 158.163 C 88.156 156.436 88.326 154.916 88.941 154.536 C 90.650 153.480 90.174 152.400 87.453 151.161 C 84.327 149.736 80.000 149.643 80.000 151.000 "/></g>
<g fill="#7A4C2CFE" stroke="#7A4C2CFE">
<path d="M 88.889 155.917 C 88.828 156.238 88.873 157.604 88.988 158.954 C 89.163 161.017 88.961 161.212 87.715 160.179 C 86.518 159.185 86.114 159.259 85.614 160.565 C 84.713 162.912 85.899 164.329 87.589 162.926 C 88.718 161.989 89.001 162.129 89.007 163.628 C 89.012 165.112 89.403 164.908 90.897 162.643 C 92.652 159.980 92.854 159.912 93.860 161.643 C 94.880 163.398 95.133 163.087 95.400 159.750 C 95.455 159.063 95.946 158.181 96.492 157.792 C 97.125 157.339 97.034 156.634 96.242 155.842 C 95.253 154.853 95.000 154.856 95.000 155.859 C 95.000 156.602 94.495 156.806 93.768 156.356 C 92.245 155.415 89.039 155.127 88.889 155.917 "/></g>
<g fill="#A4663EFE" stroke="#A4663EFE">
<path d="M 88.362 226.500 C 88.725 227.446 88.350 228.000 87.346 228.000 C 86.045 228.000 85.982 228.274 87.000 229.500 C 87.860 230.536 87.898 231.000 87.122 231.000 C 86.505 231.000 86.000 231.698 86.000 232.550 C 86.000 233.788 86.997 234.031 90.951 233.756 L 95.903 233.412 93.395 229.206 C 91.037 225.253 87.063 223.116 88.362 226.500 "/></g>
<g fill="#884C22FE" stroke="#884C22FE">
<path d="M 98.676 211.401 C 98.370 212.200 98.767 213.392 99.559 214.049 C 100.694 214.991 101.003 214.954 101.015 213.872 C 101.028 212.775 101.216 212.794 101.958 213.966 C 102.553 214.907 102.481 215.921 101.757 216.793 C 100.904 217.820 100.972 218.365 102.036 219.022 C 103.031 219.637 104.248 218.954 106.181 216.696 C 107.687 214.938 108.937 213.217 108.959 212.871 C 108.982 212.526 107.567 211.649 105.816 210.924 C 103.308 209.885 102.544 209.868 102.219 210.844 C 101.921 211.737 101.446 211.785 100.520 211.016 C 99.581 210.237 99.083 210.341 98.676 211.401 "/></g>
<g fill="#AA8874FE" stroke="#AA8874FE">
<path d="M 77.000 151.025 C 77.000 151.588 75.875 152.477 74.500 153.000 C 73.125 153.523 72.000 154.420 72.000 154.994 C 72.000 155.608 73.029 155.780 74.500 155.411 C 76.884 154.812 77.941 156.085 76.250 157.517 C 75.838 157.867 75.950 157.897 76.500 157.585 C 78.239 156.596 78.957 156.949 78.362 158.500 C 77.954 159.562 78.449 160.000 80.060 160.000 C 81.310 160.000 82.049 159.716 81.702 159.369 C 81.355 159.021 81.520 157.896 82.070 156.869 C 82.770 155.561 82.734 155.000 81.952 155.000 C 81.337 155.000 81.019 154.442 81.247 153.759 C 81.711 152.366 79.712 150.000 78.071 150.000 C 77.482 150.000 77.000 150.461 77.000 151.025 "/></g>
<g fill="#A4663EFE" stroke="#A4663EFE">
<path d="M 35.000 170.429 C 35.000 171.214 34.438 172.460 33.750 173.197 C 33.063 173.934 31.687 175.991 30.693 177.768 C 29.118 180.586 29.086 181.000 30.443 181.000 C 31.300 181.000 32.000 180.550 32.000 180.000 C 32.000 179.450 32.817 179.000 33.816 179.000 C 34.876 179.000 36.502 177.439 37.723 175.250 C 39.479 172.101 39.595 171.300 38.449 170.250 C 36.628 168.582 35.000 168.667 35.000 170.429 "/></g>
<g fill="#884C22FE" stroke="#884C22FE">
<path d="M 70.207 185.845 L 68.092 189.608 70.914 193.870 C 72.811 196.735 73.912 197.671 74.275 196.725 C 74.572 195.952 74.438 194.709 73.977 193.963 C 73.515 193.215 73.558 191.827 74.072 190.865 C 74.667 189.754 74.640 188.896 73.999 188.499 C 73.446 188.157 73.256 186.829 73.577 185.548 C 74.554 181.658 72.457 181.843 70.207 185.845 "/></g>
<g fill="#AA8874FE" stroke="#AA8874FE">
<path d="M 53.500 154.000 C 53.160 154.550 52.009 155.000 50.941 155.000 C 49.873 155.000 49.000 155.461 49.000 156.025 C 49.000 156.588 47.914 157.463 46.586 157.967 C 45.258 158.472 43.877 159.811 43.518 160.943 C 43.159 162.074 42.446 163.000 41.933 163.000 C 41.420 163.000 41.000 163.481 41.000 164.068 C 41.000 164.656 42.307 164.206 43.904 163.068 C 45.502 161.931 47.154 161.000 47.576 161.000 C 47.997 161.000 49.104 160.311 50.034 159.469 C 50.965 158.627 52.689 157.752 53.867 157.526 C 57.399 156.845 58.142 155.999 56.579 154.436 C 54.880 152.737 54.329 152.659 53.500 154.000 "/></g>
<g fill="#643818FE" stroke="#643818FE">
<path d="M 89.135 165.496 C 87.656 168.002 87.262 169.646 87.877 170.744 C 88.621 172.074 89.047 171.809 90.411 169.171 C 92.451 165.228 93.412 165.197 95.659 169.000 C 97.463 172.054 99.000 172.913 99.000 170.868 C 99.000 168.779 94.841 162.980 93.803 163.622 C 93.238 163.971 92.441 163.714 92.032 163.052 C 91.539 162.254 90.561 163.079 89.135 165.496 "/></g>
<g fill="#0C7C9AFE" stroke="#0C7C9AFE">
<path d="M 100.149 161.088 L 103.279 166.175 105.791 163.663 L 108.303 161.151 102.965 158.576 C 100.028 157.159 97.489 156.000 97.322 156.000 C 97.155 156.000 98.427 158.289 100.149 161.088 "/></g>
<g fill="#92909AFE" stroke="#92909AFE">
<path d="M 85.403 198.146 L 85.621 202.397 90.061 202.473 C 92.502 202.515 95.063 202.902 95.750 203.333 C 96.607 203.871 97.000 203.437 97.000 201.952 C 97.000 200.523 96.531 199.966 95.622 200.315 C 94.864 200.606 93.739 200.339 93.122 199.722 C 92.293 198.893 92.000 198.965 92.000 200.000 C 92.000 201.035 91.707 201.107 90.878 200.278 C 90.261 199.661 89.110 199.404 88.320 199.707 C 87.246 200.120 86.962 199.559 87.192 197.484 C 87.361 195.958 86.979 194.526 86.342 194.302 C 85.562 194.028 85.256 195.282 85.403 198.146 "/></g>
<g fill="#0C7C9AFE" stroke="#0C7C9AFE">
<path d="M 36.000 155.454 C 36.000 155.732 36.729 157.782 37.620 160.009 C 38.987 163.424 39.573 163.953 41.362 163.385 C 43.240 162.789 43.327 162.901 42.120 164.356 C 40.954 165.760 40.979 166.000 42.294 166.000 C 43.141 166.000 44.019 165.442 44.247 164.759 C 44.761 163.217 42.530 160.871 40.893 161.232 C 39.991 161.431 39.978 161.292 40.840 160.691 C 42.727 159.375 42.188 158.149 39.000 156.500 C 37.350 155.647 36.000 155.176 36.000 155.454 "/></g>
<g fill="#AA8874FE" stroke="#AA8874FE">
<path d="M 41.972 186.533 C 41.272 187.377 40.258 187.919 39.718 187.739 C 39.178 187.559 37.471 188.522 35.925 189.879 L 33.113 192.346 35.671 193.673 C 38.738 195.264 39.000 195.290 39.000 194.000 C 39.000 193.450 38.325 193.000 37.500 193.000 C 35.149 193.000 35.744 191.048 38.403 190.037 C 39.724 189.534 41.101 188.646 41.462 188.062 C 42.464 186.440 44.015 186.798 43.362 188.500 C 43.003 189.435 43.369 190.000 44.334 190.000 C 46.650 190.000 47.325 188.182 45.635 186.492 C 43.779 184.636 43.545 184.639 41.972 186.533 "/></g>
<g fill="#A4663EFE" stroke="#A4663EFE">
<path d="M 47.238 153.850 C 44.412 154.662 40.226 161.000 42.515 161.000 C 43.332 161.000 44.000 160.539 44.000 159.975 C 44.000 159.412 45.125 158.523 46.500 158.000 C 47.875 157.477 49.000 156.588 49.000 156.025 C 49.000 155.461 49.873 155.000 50.941 155.000 C 52.009 155.000 53.160 154.550 53.500 154.000 C 54.180 152.900 50.823 152.819 47.238 153.850 "/></g>
<g fill="#A4663EFE" stroke="#A4663EFE">
<path d="M 89.345 216.251 C 89.031 216.759 89.275 217.675 89.887 218.287 C 90.704 219.104 91.000 219.049 91.000 218.078 C 91.000 217.146 91.370 217.055 92.250 217.768 C 92.938 218.325 94.625 218.691 96.000 218.582 C 97.375 218.473 99.063 218.803 99.750 219.314 C 100.654 219.988 101.000 219.629 101.000 218.015 C 101.000 216.532 100.539 215.963 99.622 216.315 C 98.864 216.606 97.739 216.339 97.122 215.722 C 96.293 214.893 96.000 214.929 96.000 215.859 C 96.000 216.602 95.495 216.806 94.768 216.356 C 92.967 215.244 90.003 215.186 89.345 216.251 "/></g>
<g fill="#884C22FE" stroke="#884C22FE">
<path d="M 96.474 157.803 C 95.027 158.839 94.891 162.196 96.192 164.750 C 97.896 168.095 98.881 167.485 98.821 163.121 C 98.760 158.723 97.902 156.780 96.474 157.803 "/></g>
<g fill="#7A4C2CFE" stroke="#7A4C2CFE">
<path d="M 91.000 218.819 C 91.000 219.953 91.450 221.160 92.000 221.500 C 92.550 221.840 93.000 221.615 93.000 221.000 C 93.000 220.369 93.537 220.214 94.232 220.644 C 97.433 222.622 101.438 221.038 99.113 218.713 C 98.296 217.896 98.000 217.951 98.000 218.922 C 98.000 219.915 97.666 219.967 96.658 219.131 C 95.920 218.519 95.031 218.303 94.682 218.651 C 94.334 219.000 93.362 218.716 92.524 218.020 C 91.242 216.956 91.000 217.083 91.000 218.819 "/></g>
<g fill="#7A4C2CFE" stroke="#7A4C2CFE">
<path d="M 74.000 197.698 C 74.000 198.604 74.577 198.992 75.435 198.663 C 76.225 198.360 77.125 198.650 77.435 199.306 C 77.859 200.203 78.149 200.178 78.597 199.208 C 79.035 198.261 79.544 198.207 80.508 199.007 C 81.459 199.796 82.013 199.789 82.511 198.982 C 83.544 197.311 82.393 196.656 77.983 196.407 C 74.992 196.239 74.000 196.560 74.000 197.698 "/></g>
<g fill="#AA8874FE" stroke="#AA8874FE">
<path d="M 83.000 159.396 C 83.000 160.784 79.783 163.104 75.819 164.574 C 74.895 164.917 73.903 165.810 73.616 166.558 C 73.254 167.501 74.230 167.302 76.797 165.908 C 85.457 161.204 86.744 159.996 84.455 158.715 C 83.467 158.162 83.000 158.381 83.000 159.396 "/></g>
<g fill="#A4663EFE" stroke="#A4663EFE">
<path d="M 75.358 194.231 C 74.457 195.687 75.771 196.353 80.017 196.593 C 83.008 196.761 84.000 196.440 84.000 195.302 C 84.000 194.412 83.421 194.008 82.598 194.324 C 81.827 194.620 80.917 194.584 80.577 194.244 C 79.587 193.254 75.967 193.244 75.358 194.231 "/></g>
<g fill="#AA8874FE" stroke="#AA8874FE">
<path d="M 47.719 185.709 C 47.991 186.419 48.691 187.000 49.274 187.000 C 49.856 187.000 50.055 187.279 49.714 187.619 C 49.374 187.960 49.761 188.904 50.575 189.718 C 51.823 190.966 52.305 190.986 53.641 189.849 C 55.073 188.630 55.058 188.531 53.477 188.825 C 52.237 189.056 51.904 188.692 52.333 187.575 C 52.665 186.709 52.475 186.000 51.910 186.000 C 51.344 186.000 51.158 185.553 51.496 185.007 C 51.849 184.436 51.071 184.099 49.666 184.216 C 48.131 184.343 47.407 184.897 47.719 185.709 "/></g>
<g fill="#643818FE" stroke="#643818FE">
<path d="M 90.358 203.231 C 89.457 204.687 90.771 205.353 95.016 205.592 C 98.088 205.766 98.826 205.512 98.249 204.480 C 97.837 203.744 97.163 203.110 96.750 203.071 C 96.338 203.032 95.888 202.963 95.750 202.917 C 94.021 202.340 90.791 202.528 90.358 203.231 "/></g>
<g fill="#AA8874FE" stroke="#AA8874FE">
<path d="M 47.750 197.668 C 44.318 198.606 46.074 200.110 50.250 199.807 C 52.588 199.638 54.401 199.050 54.281 198.500 C 54.038 197.388 50.449 196.931 47.750 197.668 "/></g>
<g fill="#AA8874FE" stroke="#AA8874FE">
<path d="M 24.500 188.000 C 24.160 188.550 24.407 189.000 25.048 189.000 C 25.709 189.000 25.946 189.697 25.596 190.611 C 25.160 191.746 25.409 192.057 26.438 191.662 C 27.418 191.286 27.715 191.579 27.342 192.551 C 26.509 194.723 28.430 194.296 30.595 191.828 C 31.643 190.634 31.914 190.000 31.197 190.420 C 30.399 190.888 29.191 190.373 28.080 189.092 C 26.047 186.748 25.397 186.549 24.500 188.000 "/></g>
<g fill="#A4663EFE" stroke="#A4663EFE">
<path d="M 26.667 184.667 C 25.616 185.717 25.860 186.533 27.947 188.939 C 29.796 191.071 32.000 191.040 32.000 188.882 C 32.000 188.332 31.474 188.207 30.830 188.605 C 30.029 189.100 29.875 188.769 30.341 187.553 C 30.840 186.253 30.631 185.927 29.562 186.338 C 28.582 186.714 28.285 186.421 28.658 185.449 C 29.223 183.977 27.883 183.450 26.667 184.667 "/></g>
<g fill="#884C22FE" stroke="#884C22FE">
<path d="M 53.500 157.713 C 49.233 158.739 49.512 160.125 53.922 159.813 C 56.355 159.641 58.530 158.938 58.756 158.250 C 59.170 156.990 57.300 156.799 53.500 157.713 "/></g>
<g fill="#AA8874FE" stroke="#AA8874FE">
<path d="M 56.174 190.005 C 54.023 191.798 53.947 194.769 56.085 193.447 C 56.606 193.125 56.793 192.474 56.500 192.000 C 55.399 190.219 58.204 189.875 60.069 191.563 C 61.138 192.530 62.314 193.019 62.683 192.650 C 63.240 192.094 59.727 187.927 58.792 188.033 C 58.631 188.052 57.453 188.939 56.174 190.005 "/></g>
<g fill="#884C22FE" stroke="#884C22FE">
<path d="M 76.750 158.176 C 74.317 159.460 71.478 165.000 73.253 165.000 C 73.970 165.000 75.444 163.257 76.528 161.127 C 78.316 157.614 78.337 157.339 76.750 158.176 "/></g>
<g fill="#46CAFE1C" stroke="#46CAFE1C">
<path d="M 44.500 144.475 L 35.500 153.539 44.500 144.475 L 53.500 135.411 44.500 144.475 "/></g>
<g fill="#7A4C2CFE" stroke="#7A4C2CFE">
<path d="M 50.000 221.500 C 50.685 222.325 52.063 223.000 53.063 223.000 C 54.064 223.000 55.175 223.475 55.534 224.055 C 55.893 224.636 56.932 224.932 57.843 224.713 C 59.094 224.412 58.851 224.047 56.847 223.219 C 55.388 222.616 53.899 221.646 53.538 221.062 C 53.177 220.478 51.953 220.000 50.819 220.000 C 49.098 220.000 48.962 220.249 50.000 221.500 "/></g>
<g fill="#884C22FE" stroke="#884C22FE">
<path d="M 100.264 166.964 C 100.411 170.649 100.543 170.818 102.146 169.368 C 103.542 168.104 103.662 167.352 102.774 165.404 C 101.146 161.829 100.086 162.488 100.264 166.964 "/></g>
<g fill="#0C7C9AFE" stroke="#0C7C9AFE">
<path d="M 53.692 182.162 C 51.971 183.116 51.983 183.250 53.924 184.934 C 55.046 185.907 55.672 186.995 55.315 187.352 C 54.958 187.708 55.386 188.000 56.265 188.000 C 57.340 188.000 57.783 187.243 57.617 185.688 C 57.474 184.349 56.843 183.552 56.117 183.794 C 55.405 184.032 55.001 183.553 55.182 182.686 C 55.431 181.490 55.108 181.376 53.692 182.162 "/></g>
<g fill="#884C22FE" stroke="#884C22FE">
<path d="M 44.716 163.904 C 42.772 167.194 42.612 168.000 43.901 168.000 C 44.397 168.000 45.732 166.425 46.867 164.500 C 48.264 162.133 48.528 161.000 47.682 161.000 C 46.994 161.000 45.659 162.307 44.716 163.904 "/></g>
<g fill="#7A4C2CFE" stroke="#7A4C2CFE">
<path d="M 58.000 203.500 C 58.685 204.325 59.810 205.000 60.500 205.000 C 61.190 205.000 62.331 205.694 63.035 206.542 C 63.893 207.576 64.647 207.753 65.320 207.080 C 65.994 206.406 65.479 205.753 63.760 205.099 C 62.349 204.562 60.899 203.646 60.538 203.062 C 60.177 202.478 59.178 202.000 58.319 202.000 C 57.042 202.000 56.984 202.275 58.000 203.500 "/></g>
<g fill="#7A4C2CFE" stroke="#7A4C2CFE">
<path d="M 98.922 160.583 C 98.474 165.840 98.668 168.585 99.500 168.764 C 100.556 168.990 100.654 161.320 99.608 160.275 C 99.274 159.940 98.965 160.079 98.922 160.583 "/></g>
<g fill="#643818FE" stroke="#643818FE">
<path d="M 84.016 179.971 C 83.372 181.173 83.140 182.909 83.500 183.828 C 84.040 185.207 84.419 184.999 85.667 182.640 C 86.672 180.738 86.845 179.445 86.182 178.782 C 85.520 178.120 84.793 178.518 84.016 179.971 "/></g>
<g fill="#A4663EFE" stroke="#A4663EFE">
<path d="M 80.243 160.542 C 79.007 161.408 77.594 161.867 77.103 161.564 C 76.132 160.964 74.624 163.957 75.470 164.804 C 75.755 165.088 76.778 164.642 77.744 163.813 C 78.710 162.983 80.325 162.010 81.333 161.651 C 82.341 161.293 83.014 160.542 82.828 159.984 C 82.629 159.387 81.565 159.617 80.243 160.542 "/></g>
<g fill="#AA8874FE" stroke="#AA8874FE">
<path d="M 37.264 167.136 C 36.417 167.983 36.475 168.618 37.493 169.636 C 39.301 171.444 40.648 171.359 41.404 169.389 C 41.860 168.200 41.597 167.941 40.400 168.400 C 39.235 168.847 38.941 168.596 39.357 167.511 C 40.041 165.730 38.879 165.521 37.264 167.136 "/></g>
<g fill="#2CB4C6FE" stroke="#2CB4C6FE">
<path d="M 110.500 181.468 L 103.500 188.545 110.500 181.468 L 117.500 174.392 110.500 181.468 "/></g>
<g fill="#884C22FE" stroke="#884C22FE">
<path d="M 72.750 155.689 C 71.788 155.941 71.000 156.594 71.000 157.140 C 71.000 158.562 76.264 157.748 76.756 156.250 C 77.168 154.997 76.016 154.836 72.750 155.689 "/></g>
<g fill="#884C22FE" stroke="#884C22FE">
<path d="M 89.113 154.364 C 88.210 155.452 88.438 155.693 90.240 155.556 C 91.483 155.461 93.063 155.803 93.750 156.314 C 94.554 156.913 95.000 156.857 95.000 156.158 C 95.000 155.218 91.972 153.000 90.688 153.000 C 90.444 153.000 89.736 153.614 89.113 154.364 "/></g>
<g fill="#A4663EFE" stroke="#A4663EFE">
<path d="M 51.500 185.000 C 51.160 185.550 51.344 186.000 51.910 186.000 C 52.475 186.000 52.678 186.675 52.362 187.500 C 51.683 189.267 53.113 189.487 54.736 187.864 C 55.583 187.017 55.525 186.382 54.507 185.364 C 52.881 183.738 52.322 183.670 51.500 185.000 "/></g>
<g fill="#A4663EFE" stroke="#A4663EFE">
<path d="M 38.500 165.000 C 38.160 165.550 38.344 166.000 38.910 166.000 C 39.475 166.000 39.691 166.642 39.390 167.427 C 38.990 168.469 39.403 168.707 40.921 168.310 C 43.383 167.667 43.461 167.318 41.571 165.429 C 39.880 163.737 39.328 163.660 38.500 165.000 "/></g>
<g fill="#145082A0" stroke="#145082A0">
<path d="M 219.098 180.345 L 219.695 186.500 219.848 180.809 C 219.931 177.679 219.663 174.909 219.250 174.654 C 218.838 174.398 218.769 176.959 219.098 180.345 "/></g>
<g fill="#0C7C9AFE" stroke="#0C7C9AFE">
<path d="M 68.263 178.880 C 66.482 179.771 64.907 181.061 64.763 181.746 C 64.618 182.432 66.222 181.829 68.328 180.407 C 72.851 177.352 72.819 176.599 68.263 178.880 "/></g>
<g fill="#7A4C2CFE" stroke="#7A4C2CFE">
<path d="M 60.218 226.154 C 60.464 226.895 61.468 227.655 62.448 227.846 C 63.588 228.066 64.069 227.706 63.782 226.846 C 63.536 226.105 62.532 225.345 61.552 225.154 C 60.412 224.934 59.931 225.294 60.218 226.154 "/></g>
<g fill="#7A4C2CFE" stroke="#7A4C2CFE">
<path d="M 67.218 208.154 C 67.464 208.895 68.468 209.655 69.448 209.846 C 70.588 210.066 71.069 209.706 70.782 208.846 C 70.536 208.105 69.532 207.345 68.552 207.154 C 67.412 206.934 66.931 207.294 67.218 208.154 "/></g>
<g fill="#884C22FE" stroke="#884C22FE">
<path d="M 95.566 205.893 C 94.572 207.502 95.621 208.694 97.885 208.527 C 99.342 208.420 99.617 208.007 98.942 206.941 C 98.441 206.148 98.017 205.950 98.000 206.500 C 97.983 207.050 97.583 206.889 97.110 206.143 C 96.510 205.197 96.043 205.122 95.566 205.893 "/></g>
<g fill="#884C22FE" stroke="#884C22FE">
<path d="M 40.500 176.444 C 38.661 177.816 38.646 177.939 40.309 177.968 C 41.304 177.986 41.840 178.450 41.500 179.000 C 41.160 179.550 41.332 180.000 41.882 180.000 C 42.432 180.000 43.160 179.550 43.500 179.000 C 43.840 178.450 43.622 178.000 43.015 178.000 C 42.409 178.000 42.045 177.314 42.206 176.476 C 42.468 175.120 42.279 175.117 40.500 176.444 "/></g>
<g fill="#643818FE" stroke="#643818FE">
<path d="M 74.306 211.715 C 72.733 212.261 73.817 215.000 75.607 215.000 C 76.373 215.000 76.993 214.663 76.985 214.250 C 76.954 212.723 75.463 211.313 74.306 211.715 "/></g>
<g fill="#0C7C9AFE" stroke="#0C7C9AFE">
<path d="M 29.714 184.619 C 28.782 185.551 31.830 188.223 33.000 187.500 C 33.641 187.104 33.486 186.343 32.579 185.436 C 30.974 183.832 30.607 183.727 29.714 184.619 "/></g>
<g fill="#A4663EFE" stroke="#A4663EFE">
<path d="M 53.000 215.500 C 53.685 216.325 54.851 217.000 55.591 217.000 C 56.377 217.000 56.698 216.376 56.362 215.500 C 56.045 214.675 54.879 214.000 53.771 214.000 C 52.092 214.000 51.963 214.251 53.000 215.500 "/></g>
<g fill="#422814FE" stroke="#422814FE">
<path d="M 70.610 228.427 C 71.320 230.276 74.363 230.589 73.750 228.750 C 73.522 228.063 72.586 227.355 71.671 227.177 C 70.511 226.952 70.190 227.331 70.610 228.427 "/></g>
<g fill="#422814FE" stroke="#422814FE">
<path d="M 83.725 197.273 C 83.428 198.048 83.569 199.303 84.039 200.063 C 84.729 201.180 85.024 201.102 85.579 199.655 C 85.957 198.671 85.816 197.416 85.266 196.866 C 84.599 196.199 84.085 196.335 83.725 197.273 "/></g>
<g fill="#643818FE" stroke="#643818FE">
<path d="M 67.610 228.427 C 68.320 230.276 71.363 230.589 70.750 228.750 C 70.522 228.063 69.586 227.355 68.671 227.177 C 67.511 226.952 67.190 227.331 67.610 228.427 "/></g>
<g fill="#643818FE" stroke="#643818FE">
<path d="M 44.250 216.250 C 44.478 216.938 45.414 217.645 46.329 217.823 C 47.489 218.048 47.810 217.669 47.390 216.573 C 46.680 214.724 43.637 214.411 44.250 216.250 "/></g>
<g fill="#643818FE" stroke="#643818FE">
<path d="M 50.638 201.500 C 50.955 202.325 52.098 203.000 53.178 203.000 C 54.925 203.000 54.976 202.833 53.643 201.500 C 52.818 200.675 51.675 200.000 51.103 200.000 C 50.531 200.000 50.322 200.675 50.638 201.500 "/></g>
<g fill="#AA8874FE" stroke="#AA8874FE">
<path d="M 41.000 196.500 C 41.685 197.325 42.920 198.000 43.745 198.000 C 44.965 198.000 45.012 197.720 44.000 196.500 C 43.315 195.675 42.080 195.000 41.255 195.000 C 40.035 195.000 39.988 195.280 41.000 196.500 "/></g>
<g fill="#AA8874FE" stroke="#AA8874FE">
<path d="M 54.667 169.667 C 53.545 170.788 53.923 172.000 55.393 172.000 C 56.159 172.000 57.045 171.325 57.362 170.500 C 57.939 168.996 55.951 168.382 54.667 169.667 "/></g>
<g fill="#A4663EFE" stroke="#A4663EFE">
<path d="M 74.570 183.887 C 74.269 184.374 74.640 185.286 75.394 185.912 C 76.442 186.781 76.896 186.713 77.314 185.623 C 78.169 183.396 75.800 181.896 74.570 183.887 "/></g>
<g fill="#7A4C2CFE" stroke="#7A4C2CFE">
<path d="M 46.694 203.639 C 45.768 204.565 46.883 206.000 48.528 206.000 C 49.370 206.000 49.706 205.396 49.362 204.500 C 48.751 202.909 47.748 202.586 46.694 203.639 "/></g>
<g fill="#7A4C2CFE" stroke="#7A4C2CFE">
<path d="M 79.500 176.000 C 79.101 176.646 79.224 177.624 79.774 178.174 C 80.441 178.841 81.016 178.783 81.500 178.000 C 81.899 177.354 81.776 176.376 81.226 175.826 C 80.559 175.159 79.984 175.217 79.500 176.000 "/></g>
<g fill="#CCCCCCFE" stroke="#CCCCCCFE">
<path d="M 46.000 213.417 C 46.000 214.288 46.713 215.000 47.583 215.000 C 49.349 215.000 49.042 212.847 47.188 212.229 C 46.534 212.011 46.000 212.546 46.000 213.417 "/></g>
<g fill="#CCCCCCFE" stroke="#CCCCCCFE">
<path d="M 49.638 204.500 C 49.955 205.325 50.827 206.000 51.576 206.000 C 52.375 206.000 52.700 205.381 52.362 204.500 C 52.045 203.675 51.173 203.000 50.424 203.000 C 49.625 203.000 49.300 203.619 49.638 204.500 "/></g>
<g fill="#884C22FE" stroke="#884C22FE">
<path d="M 65.250 214.250 C 65.478 214.938 66.514 215.664 67.551 215.865 C 69.182 216.181 69.256 216.013 68.096 214.615 C 66.510 212.704 64.656 212.466 65.250 214.250 "/></g>
<g fill="#884C22FE" stroke="#884C22FE">
<path d="M 81.674 189.408 C 81.111 190.874 81.759 192.000 83.167 192.000 C 84.283 192.000 84.234 189.263 83.105 188.565 C 82.612 188.260 81.968 188.640 81.674 189.408 "/></g>
<g fill="#422814FE" stroke="#422814FE">
<path d="M 87.000 203.441 C 87.000 204.234 87.403 205.131 87.895 205.435 C 88.925 206.071 90.166 203.499 89.264 202.598 C 88.191 201.525 87.000 201.968 87.000 203.441 "/></g>
<g fill="#643818FE" stroke="#643818FE">
<path d="M 55.638 209.500 C 55.955 210.325 56.827 211.000 57.576 211.000 C 58.375 211.000 58.700 210.381 58.362 209.500 C 58.045 208.675 57.173 208.000 56.424 208.000 C 55.625 208.000 55.300 208.619 55.638 209.500 "/></g>
<g fill="#643818FE" stroke="#643818FE">
<path d="M 83.500 192.000 C 83.101 192.646 83.224 193.624 83.774 194.174 C 84.441 194.841 85.016 194.783 85.500 194.000 C 85.899 193.354 85.776 192.376 85.226 191.826 C 84.559 191.159 83.984 191.217 83.500 192.000 "/></g>
<g fill="#5A381EFE" stroke="#5A381EFE">
<path d="M 62.638 220.500 C 62.955 221.325 63.827 222.000 64.576 222.000 C 65.375 222.000 65.700 221.381 65.362 220.500 C 65.045 219.675 64.173 219.000 63.424 219.000 C 62.625 219.000 62.300 219.619 62.638 220.500 "/></g>
<g fill="#A4663EFE" stroke="#A4663EFE">
<path d="M 71.229 199.188 C 71.847 201.042 74.000 201.349 74.000 199.583 C 74.000 198.713 73.288 198.000 72.417 198.000 C 71.546 198.000 71.011 198.534 71.229 199.188 "/></g>
<g fill="#A4663EFE" stroke="#A4663EFE">
<path d="M 39.459 186.067 C 38.286 187.964 39.996 188.432 41.738 186.690 C 43.297 185.132 43.300 185.000 41.773 185.000 C 40.863 185.000 39.821 185.480 39.459 186.067 "/></g>
<g fill="#7A4C2CFE" stroke="#7A4C2CFE">
<path d="M 44.000 210.531 C 44.000 211.339 44.675 212.000 45.500 212.000 C 46.325 212.000 47.000 211.598 47.000 211.107 C 47.000 210.616 46.325 209.955 45.500 209.638 C 44.586 209.288 44.000 209.637 44.000 210.531 "/></g>
<g fill="#7A4C2CFE" stroke="#7A4C2CFE">
<path d="M 85.679 165.711 C 85.378 166.197 85.496 167.185 85.941 167.905 C 86.556 168.899 86.927 168.927 87.488 168.020 C 87.894 167.363 87.776 166.376 87.226 165.826 C 86.666 165.266 85.985 165.216 85.679 165.711 "/></g>
<g fill="#92909AFE" stroke="#92909AFE">
<path d="M 84.694 189.639 C 83.895 190.438 84.798 192.000 86.059 192.000 C 86.577 192.000 87.000 191.325 87.000 190.500 C 87.000 188.954 85.820 188.513 84.694 189.639 "/></g>
<g fill="#884C22FE" stroke="#884C22FE">
<path d="M 92.000 206.441 C 92.000 207.234 92.450 208.160 93.000 208.500 C 93.550 208.840 94.000 208.191 94.000 207.059 C 94.000 205.927 93.550 205.000 93.000 205.000 C 92.450 205.000 92.000 205.648 92.000 206.441 "/></g>
<g fill="#884C22FE" stroke="#884C22FE">
<path d="M 81.579 183.872 C 80.699 185.297 81.823 187.227 83.081 186.450 C 83.637 186.106 83.665 185.225 83.151 184.305 C 82.548 183.228 82.060 183.094 81.579 183.872 "/></g>
<g fill="#884C22FE" stroke="#884C22FE">
<path d="M 92.000 161.941 C 92.000 163.073 92.450 164.000 93.000 164.000 C 93.550 164.000 94.000 163.352 94.000 162.559 C 94.000 161.766 93.550 160.840 93.000 160.500 C 92.450 160.160 92.000 160.809 92.000 161.941 "/></g>
<g fill="#643818FE" stroke="#643818FE">
<path d="M 83.694 202.639 C 82.895 203.438 83.798 205.000 85.059 205.000 C 85.577 205.000 86.000 204.325 86.000 203.500 C 86.000 201.954 84.820 201.513 83.694 202.639 "/></g>
<g fill="#643818FE" stroke="#643818FE">
<path d="M 83.000 187.441 C 83.000 188.234 83.450 189.160 84.000 189.500 C 84.550 189.840 85.000 189.191 85.000 188.059 C 85.000 186.927 84.550 186.000 84.000 186.000 C 83.450 186.000 83.000 186.648 83.000 187.441 "/></g>
<g fill="#643818FE" stroke="#643818FE">
<path d="M 51.638 175.500 C 51.322 176.325 51.444 177.000 51.909 177.000 C 52.374 177.000 53.315 176.325 54.000 175.500 C 55.013 174.279 54.963 174.000 53.729 174.000 C 52.896 174.000 51.955 174.675 51.638 175.500 "/></g>
<g fill="#643818FE" stroke="#643818FE">
<path d="M 39.761 172.217 C 39.190 173.931 41.744 174.110 42.399 172.401 C 42.701 171.615 42.329 171.000 41.552 171.000 C 40.790 171.000 39.984 171.548 39.761 172.217 "/></g>
<g fill="#5A381EFE" stroke="#5A381EFE">
<path d="M 41.459 169.067 C 41.096 169.653 41.040 170.373 41.333 170.667 C 42.050 171.383 44.000 170.121 44.000 168.941 C 44.000 167.663 42.274 167.748 41.459 169.067 "/></g>
<g fill="#5A381EFE" stroke="#5A381EFE">
<path d="M 65.000 157.500 C 63.649 159.128 63.972 159.332 66.418 158.393 C 67.288 158.059 68.000 157.384 68.000 156.893 C 68.000 155.510 66.380 155.838 65.000 157.500 "/></g>
<g fill="#AA8874FE" stroke="#AA8874FE">
<path d="M 41.000 225.500 C 41.000 226.325 41.661 227.000 42.469 227.000 C 43.363 227.000 43.712 226.414 43.362 225.500 C 43.045 224.675 42.384 224.000 41.893 224.000 C 41.402 224.000 41.000 224.675 41.000 225.500 "/></g>
<g fill="#AA8874FE" stroke="#AA8874FE">
<path d="M 30.718 193.616 C 29.715 194.619 30.905 196.000 32.773 196.000 C 34.256 196.000 34.270 195.841 32.905 194.476 C 32.067 193.638 31.082 193.251 30.718 193.616 "/></g>
<g fill="#0C7C9AFE" stroke="#0C7C9AFE">
<path d="M 32.459 189.067 C 32.096 189.653 32.040 190.373 32.333 190.667 C 33.050 191.383 35.000 190.121 35.000 188.941 C 35.000 187.663 33.274 187.748 32.459 189.067 "/></g>
<g fill="#A4663EFE" stroke="#A4663EFE">
<path d="M 85.192 221.075 C 85.389 221.666 85.978 222.150 86.500 222.150 C 87.023 222.150 87.611 221.666 87.808 221.075 C 88.005 220.484 87.417 220.000 86.500 220.000 C 85.583 220.000 84.995 220.484 85.192 221.075 "/></g>
<g fill="#A4663EFE" stroke="#A4663EFE">
<path d="M 89.000 211.441 C 89.000 212.234 89.450 213.160 90.000 213.500 C 90.550 213.840 91.000 213.191 91.000 212.059 C 91.000 210.927 90.550 210.000 90.000 210.000 C 89.450 210.000 89.000 210.648 89.000 211.441 "/></g>
<g fill="#A4663EFE" stroke="#A4663EFE">
<path d="M 75.579 188.872 C 74.699 190.297 75.823 192.227 77.081 191.450 C 77.637 191.106 77.665 190.225 77.151 189.305 C 76.548 188.228 76.060 188.094 75.579 188.872 "/></g>
<g fill="#A4663EFE" stroke="#A4663EFE">
<path d="M 57.638 165.500 C 57.322 166.325 57.444 167.000 57.909 167.000 C 58.374 167.000 59.315 166.325 60.000 165.500 C 61.013 164.279 60.963 164.000 59.729 164.000 C 58.896 164.000 57.955 164.675 57.638 165.500 "/></g>
<g fill="#A4663EFE" stroke="#A4663EFE">
<path d="M 87.750 162.572 C 86.631 163.708 86.845 166.000 88.070 166.000 C 88.658 166.000 88.995 165.057 88.820 163.905 C 88.644 162.753 88.163 162.153 87.750 162.572 "/></g>
<g fill="#7A4C2CFE" stroke="#7A4C2CFE">
<path d="M 101.000 220.500 C 101.000 221.325 101.450 222.000 102.000 222.000 C 102.550 222.000 103.000 221.325 103.000 220.500 C 103.000 219.675 102.550 219.000 102.000 219.000 C 101.450 219.000 101.000 219.675 101.000 220.500 "/></g>
<g fill="#7A4C2CFE" stroke="#7A4C2CFE">
<path d="M 88.000 219.500 C 88.000 220.325 88.450 221.000 89.000 221.000 C 89.550 221.000 90.000 220.325 90.000 219.500 C 90.000 218.675 89.550 218.000 89.000 218.000 C 88.450 218.000 88.000 218.675 88.000 219.500 "/></g>
<g fill="#7A4C2CFE" stroke="#7A4C2CFE">
<path d="M 45.500 208.000 C 45.840 208.550 46.793 209.000 47.618 209.000 C 48.443 209.000 48.840 208.550 48.500 208.000 C 48.160 207.450 47.207 207.000 46.382 207.000 C 45.557 207.000 45.160 207.450 45.500 208.000 "/></g>
<g fill="#7A4C2CFE" stroke="#7A4C2CFE">
<path d="M 76.636 175.837 C 76.113 176.649 76.245 177.631 76.972 178.337 C 77.894 179.233 78.092 178.926 77.833 177.000 C 77.589 175.178 77.264 174.863 76.636 175.837 "/></g>
<g fill="#884C22FE" stroke="#884C22FE">
<path d="M 46.500 185.444 C 44.762 186.741 44.724 186.941 46.206 186.968 C 47.145 186.986 48.045 186.314 48.206 185.476 C 48.468 184.120 48.279 184.117 46.500 185.444 "/></g>
<g fill="#884C22FE" stroke="#884C22FE">
<path d="M 58.794 177.524 C 58.532 178.880 58.721 178.883 60.500 177.556 C 62.238 176.259 62.276 176.059 60.794 176.032 C 59.855 176.014 58.955 176.686 58.794 177.524 "/></g>
<g fill="#884C22FE" stroke="#884C22FE">
<path d="M 48.500 171.000 C 48.160 171.550 48.557 172.000 49.382 172.000 C 50.207 172.000 51.160 171.550 51.500 171.000 C 51.840 170.450 51.443 170.000 50.618 170.000 C 49.793 170.000 48.840 170.450 48.500 171.000 "/></g>
<g fill="#422814FE" stroke="#422814FE">
<path d="M 65.000 229.000 C 65.000 229.550 65.675 230.000 66.500 230.000 C 67.325 230.000 68.000 229.550 68.000 229.000 C 68.000 228.450 67.325 228.000 66.500 228.000 C 65.675 228.000 65.000 228.450 65.000 229.000 "/></g>
<g fill="#422814FE" stroke="#422814FE">
<path d="M 46.150 218.950 C 46.370 219.610 46.876 220.116 47.275 220.075 C 48.471 219.951 48.239 218.580 46.950 218.150 C 46.290 217.930 45.930 218.290 46.150 218.950 "/></g>
<g fill="#422814FE" stroke="#422814FE">
<path d="M 75.500 216.000 C 75.840 216.550 76.793 217.000 77.618 217.000 C 78.443 217.000 78.840 216.550 78.500 216.000 C 78.160 215.450 77.207 215.000 76.382 215.000 C 75.557 215.000 75.160 215.450 75.500 216.000 "/></g>
<g fill="#422814FE" stroke="#422814FE">
<path d="M 43.695 212.639 C 42.506 213.828 42.930 215.000 44.550 215.000 C 45.646 215.000 45.849 214.553 45.244 213.472 C 44.774 212.632 44.077 212.257 43.695 212.639 "/></g>
<g fill="#422814FE" stroke="#422814FE">
<path d="M 53.500 201.000 C 53.840 201.550 54.793 202.000 55.618 202.000 C 56.443 202.000 56.840 201.550 56.500 201.000 C 56.160 200.450 55.207 200.000 54.382 200.000 C 53.557 200.000 53.160 200.450 53.500 201.000 "/></g>
<g fill="#422814FE" stroke="#422814FE">
<path d="M 48.695 200.639 C 47.506 201.828 47.930 203.000 49.550 203.000 C 50.646 203.000 50.849 202.553 50.244 201.472 C 49.774 200.632 49.077 200.257 48.695 200.639 "/></g>
<g fill="#422814FE" stroke="#422814FE">
<path d="M 90.000 193.500 C 90.000 194.325 90.450 195.000 91.000 195.000 C 91.550 195.000 92.000 194.325 92.000 193.500 C 92.000 192.675 91.550 192.000 91.000 192.000 C 90.450 192.000 90.000 192.675 90.000 193.500 "/></g>
<g fill="#643818FE" stroke="#643818FE">
<path d="M 63.750 156.816 C 62.788 156.998 62.000 157.564 62.000 158.073 C 62.000 159.421 63.735 159.208 64.685 157.743 C 65.248 156.875 64.958 156.588 63.750 156.816 "/></g>
<g fill="#5A381EFE" stroke="#5A381EFE">
<path d="M 71.000 166.500 C 70.306 167.337 70.197 168.000 70.755 168.000 C 71.305 168.000 72.315 167.325 73.000 166.500 C 73.694 165.663 73.803 165.000 73.245 165.000 C 72.695 165.000 71.685 165.675 71.000 166.500 "/></g>
<g fill="#AA8874FE" stroke="#AA8874FE">
<path d="M 78.500 216.000 C 78.840 216.550 79.793 217.000 80.618 217.000 C 81.443 217.000 81.840 216.550 81.500 216.000 C 81.160 215.450 80.207 215.000 79.382 215.000 C 78.557 215.000 78.160 215.450 78.500 216.000 "/></g>
<g fill="#AA8874FE" stroke="#AA8874FE">
<path d="M 53.000 194.810 C 53.000 195.347 53.713 196.059 54.584 196.394 C 55.557 196.767 56.015 196.544 55.771 195.813 C 55.273 194.318 53.000 193.495 53.000 194.810 "/></g>
<g fill="#AA8874FE" stroke="#AA8874FE">
<path d="M 64.500 194.000 C 64.840 194.550 65.793 195.000 66.618 195.000 C 67.443 195.000 67.840 194.550 67.500 194.000 C 67.160 193.450 66.207 193.000 65.382 193.000 C 64.557 193.000 64.160 193.450 64.500 194.000 "/></g>
<g fill="#0C7C9AFE" stroke="#0C7C9AFE">
<path d="M 37.000 186.500 C 36.306 187.337 36.197 188.000 36.755 188.000 C 37.305 188.000 38.315 187.325 39.000 186.500 C 39.694 185.663 39.803 185.000 39.245 185.000 C 38.695 185.000 37.685 185.675 37.000 186.500 "/></g>
<g fill="#0C7C9AFE" stroke="#0C7C9AFE">
<path d="M 60.000 184.000 C 60.000 184.550 60.675 185.000 61.500 185.000 C 62.325 185.000 63.000 184.550 63.000 184.000 C 63.000 183.450 62.325 183.000 61.500 183.000 C 60.675 183.000 60.000 183.450 60.000 184.000 "/></g>
<g fill="#A4663EFE" stroke="#A4663EFE">
<path d="M 89.000 206.500 C 89.000 207.325 89.450 208.000 90.000 208.000 C 90.550 208.000 91.000 207.325 91.000 206.500 C 91.000 205.675 90.550 205.000 90.000 205.000 C 89.450 205.000 89.000 205.675 89.000 206.500 "/></g>
<g fill="#7A4C2CFE" stroke="#7A4C2CFE">
<path d="M 51.500 166.000 C 51.160 166.550 51.584 167.000 52.441 167.000 C 53.298 167.000 54.000 166.550 54.000 166.000 C 54.000 165.450 53.577 165.000 53.059 165.000 C 52.541 165.000 51.840 165.450 51.500 166.000 "/></g>
<g fill="#884C22FE" stroke="#884C22FE">
<path d="M 59.500 215.000 C 59.840 215.550 60.541 216.000 61.059 216.000 C 61.577 216.000 62.000 215.550 62.000 215.000 C 62.000 214.450 61.298 214.000 60.441 214.000 C 59.584 214.000 59.160 214.450 59.500 215.000 "/></g>
<g fill="#884C22FE" stroke="#884C22FE">
<path d="M 42.500 181.000 C 42.160 181.550 42.584 182.000 43.441 182.000 C 44.298 182.000 45.000 181.550 45.000 181.000 C 45.000 180.450 44.577 180.000 44.059 180.000 C 43.541 180.000 42.840 180.450 42.500 181.000 "/></g>
<g fill="#884C22FE" stroke="#884C22FE">
<path d="M 54.500 180.000 C 54.160 180.550 54.584 181.000 55.441 181.000 C 56.298 181.000 57.000 180.550 57.000 180.000 C 57.000 179.450 56.577 179.000 56.059 179.000 C 55.541 179.000 54.840 179.450 54.500 180.000 "/></g>
<g fill="#884C22FE" stroke="#884C22FE">
<path d="M 63.500 174.000 C 63.160 174.550 63.584 175.000 64.441 175.000 C 65.298 175.000 66.000 174.550 66.000 174.000 C 66.000 173.450 65.577 173.000 65.059 173.000 C 64.541 173.000 63.840 173.450 63.500 174.000 "/></g>
<g fill="#422814FE" stroke="#422814FE">
<path d="M 72.500 211.000 C 72.840 211.550 73.541 212.000 74.059 212.000 C 74.577 212.000 75.000 211.550 75.000 211.000 C 75.000 210.450 74.298 210.000 73.441 210.000 C 72.584 210.000 72.160 210.450 72.500 211.000 "/></g>
<g fill="#643818FE" stroke="#643818FE">
<path d="M 70.500 168.523 C 69.400 169.300 69.033 169.951 69.685 169.968 C 70.336 169.986 71.236 169.349 71.685 168.554 C 72.391 167.301 72.234 167.297 70.500 168.523 "/></g>
<g fill="#643818FE" stroke="#643818FE">
<path d="M 68.000 157.000 C 68.000 157.550 68.423 158.000 68.941 158.000 C 69.459 158.000 70.160 157.550 70.500 157.000 C 70.840 156.450 70.416 156.000 69.559 156.000 C 68.702 156.000 68.000 156.450 68.000 157.000 "/></g>
<g fill="#5A381EFE" stroke="#5A381EFE">
<path d="M 50.000 183.000 C 50.000 183.550 50.423 184.000 50.941 184.000 C 51.459 184.000 52.160 183.550 52.500 183.000 C 52.840 182.450 52.416 182.000 51.559 182.000 C 50.702 182.000 50.000 182.450 50.000 183.000 "/></g>
<g fill="#5A381EFE" stroke="#5A381EFE">
<path d="M 39.114 173.929 C 38.255 174.461 38.152 174.976 38.824 175.391 C 39.395 175.744 40.163 175.545 40.531 174.950 C 41.449 173.464 40.719 172.938 39.114 173.929 "/></g>
<g fill="#5A381EFE" stroke="#5A381EFE">
<path d="M 67.900 171.630 C 66.608 173.196 66.693 173.224 68.997 171.996 C 70.371 171.264 71.001 170.500 70.397 170.299 C 69.794 170.098 68.670 170.697 67.900 171.630 "/></g>
<g fill="#5A381EFE" stroke="#5A381EFE">
<path d="M 59.500 158.000 C 59.160 158.550 59.584 159.000 60.441 159.000 C 61.298 159.000 62.000 158.550 62.000 158.000 C 62.000 157.450 61.577 157.000 61.059 157.000 C 60.541 157.000 59.840 157.450 59.500 158.000 "/></g>
<g fill="#AA8874FE" stroke="#AA8874FE">
<path d="M 27.000 204.000 C 27.000 204.550 27.702 205.000 28.559 205.000 C 29.416 205.000 29.840 204.550 29.500 204.000 C 29.160 203.450 28.459 203.000 27.941 203.000 C 27.423 203.000 27.000 203.450 27.000 204.000 "/></g>
<g fill="#0C7C9AFE" stroke="#0C7C9AFE">
<path d="M 41.000 184.000 C 41.000 184.550 41.423 185.000 41.941 185.000 C 42.459 185.000 43.160 184.550 43.500 184.000 C 43.840 183.450 43.416 183.000 42.559 183.000 C 41.702 183.000 41.000 183.450 41.000 184.000 "/></g>
<g fill="#0C7C9AFE" stroke="#0C7C9AFE">
<path d="M 28.000 183.000 C 28.000 183.550 28.423 184.000 28.941 184.000 C 29.459 184.000 30.160 183.550 30.500 183.000 C 30.840 182.450 30.416 182.000 29.559 182.000 C 28.702 182.000 28.000 182.450 28.000 183.000 "/></g>
<g fill="#0C7C9AFE" stroke="#0C7C9AFE">
<path d="M 77.000 161.000 C 77.000 161.550 77.423 162.000 77.941 162.000 C 78.459 162.000 79.160 161.550 79.500 161.000 C 79.840 160.450 79.416 160.000 78.559 160.000 C 77.702 160.000 77.000 160.450 77.000 161.000 "/></g>
<g fill="#A4663EFE" stroke="#A4663EFE">
<path d="M 63.000 184.000 C 63.000 184.550 63.423 185.000 63.941 185.000 C 64.459 185.000 65.160 184.550 65.500 184.000 C 65.840 183.450 65.416 183.000 64.559 183.000 C 63.702 183.000 63.000 183.450 63.000 184.000 "/></g>
<g fill="#A4663EFE" stroke="#A4663EFE">
<path d="M 64.000 164.509 C 62.667 166.123 62.667 166.270 64.000 165.829 C 64.825 165.557 65.500 164.739 65.500 164.013 C 65.500 163.140 64.992 163.307 64.000 164.509 "/></g>
<g fill="#643818FE" stroke="#643818FE">
<path d="M 45.000 183.000 C 45.825 183.533 46.275 184.030 46.000 184.103 C 45.725 184.177 45.860 184.176 46.299 184.102 C 47.515 183.897 46.051 181.998 44.691 182.015 C 43.975 182.025 44.099 182.418 45.000 183.000 "/></g>
<g fill="#5A381EFE" stroke="#5A381EFE">
<path d="M 45.250 182.793 C 44.563 182.998 44.006 183.692 44.014 184.333 C 44.022 185.026 44.530 184.874 45.264 183.959 C 46.247 182.733 46.244 182.495 45.250 182.793 "/></g>
<g fill="#0C7C9AFE" stroke="#0C7C9AFE">
<path d="M 81.500 158.000 C 81.160 158.550 81.332 159.000 81.882 159.000 C 82.432 159.000 83.160 158.550 83.500 158.000 C 83.840 157.450 83.668 157.000 83.118 157.000 C 82.568 157.000 81.840 157.450 81.500 158.000 "/></g>
<g fill="#A4663EFE" stroke="#A4663EFE">
<path d="M 60.500 170.000 C 60.160 170.550 60.332 171.000 60.882 171.000 C 61.432 171.000 62.160 170.550 62.500 170.000 C 62.840 169.450 62.668 169.000 62.118 169.000 C 61.568 169.000 60.840 169.450 60.500 170.000 "/></g>
<g fill="#2CB4C6FE" stroke="#2CB4C6FE">
<path d="M 102.000 169.888 L 100.500 171.563 102.000 169.888 L 103.500 168.212 102.000 169.888 "/></g>
<g fill="#7A4C2CFE" stroke="#7A4C2CFE">
<path d="M 59.422 215.874 C 59.805 216.493 60.654 216.986 61.309 216.970 C 61.964 216.953 61.651 216.446 60.613 215.843 C 59.224 215.037 58.910 215.045 59.422 215.874 "/></g>
</svg>
